<svg xmlns="http://www.w3.org/2000/svg" width="24" height="24" viewBox="0 0 24 24">
  				<path d="M11.984 16.815c2.596 0 4.706-2.11 4.706-4.707 0-1.41-.623-2.674-1.606-3.538-.346-.303-.735-.556-1.158-.748-.593-.27-1.25-.42-1.94-.42s-1.35.15-1.942.42c-.424.194-.814.447-1.158.75-.985.863-1.608 2.128-1.608 3.537 0 2.594 2.112 4.705 4.706 4.705zM12 8.63c1.92 0 3.48 1.558 3.48 3.48 0 1.92-1.56 3.478-3.48 3.478s-3.48-1.557-3.48-3.48c0-1.92 1.56-3.477 3.48-3.477zm5.223.37H24v10.278C24 21.886 21.886 24 19.278 24H4.785C2.177 24 0 21.886 0 19.278V9h6.747c-.544.913-.872 1.97-.872 3.11 0 3.373 2.735 6.108 6.11 6.108s6.108-2.735 6.108-6.11c0-1.14-.327-2.195-.87-3.108zm2.055-9H7v5H6V0H5v5H4V.077c-.346.057-.682.143-1 .27V5H2V.898c-1.202.857-2 2.246-2 3.824V8h7.473c1.167-1.282 2.798-2 4.51-2 1.723 0 3.352.725 4.512 2H24V4.722C24 2.114 21.886 0 19.278 0zM22 5.265c0 .406-.333.735-.745.735h-2.51C18.332 6 18 5.67 18 5.265v-2.53c0-.406.333-.735.744-.735h2.51c.413 0 .746.33.746.735v2.53z"></path>
				</svg>